<svg width="688" height="504" viewBox="0 0 688 504" fill="none" xmlns="http://www.w3.org/2000/svg">
<path d="M224.803 87.7141H181.027V72.9016C181.027 60.5354 190.826 50.5109 202.915 50.5109C215.003 50.5109 224.802 60.5354 224.802 72.9016V87.7141H224.803Z" fill="white" stroke="#263238" stroke-width="0.496287" stroke-miterlimit="10" stroke-linecap="round" stroke-linejoin="round"/>
<path d="M202.916 50.5109V25.708" stroke="#263238" stroke-width="0.496287" stroke-miterlimit="10" stroke-linecap="round" stroke-linejoin="round"/>
<path d="M542.003 87.7141H498.228V72.9016C498.228 60.5354 508.027 50.5109 520.115 50.5109C532.203 50.5109 542.002 60.5354 542.002 72.9016L542.003 87.7141Z" fill="white" stroke="#263238" stroke-width="0.496287" stroke-miterlimit="10" stroke-linecap="round" stroke-linejoin="round"/>
<path d="M520.116 50.5109V25.708" stroke="#263238" stroke-width="0.496287" stroke-miterlimit="10" stroke-linecap="round" stroke-linejoin="round"/>
<path d="M681.391 83.2709H559.383V235.822H681.391V83.2709Z" fill="white" stroke="#263238" stroke-width="0.496287" stroke-miterlimit="10" stroke-linecap="round" stroke-linejoin="round"/>
<path d="M681.39 83.275H559.386V235.826H681.39V83.275Z" fill="white" stroke="#263238" stroke-width="0.496287" stroke-miterlimit="10" stroke-linecap="round" stroke-linejoin="round"/>
<path d="M681.39 83.2749V142.283C674.463 149.299 665.93 155.871 655.82 160.054C624.171 173.148 583.083 158.673 606.652 112.517C612.623 100.834 616.909 91.1776 619.984 83.2749H681.39Z" fill="white" stroke="#263238" stroke-width="0.496287" stroke-miterlimit="10" stroke-linecap="round" stroke-linejoin="round"/>
<path d="M681.39 179.741V235.826H671.142C656.48 230.675 640.449 222.641 638.311 211.724C635.394 196.786 664.846 185.083 681.39 179.741Z" fill="white" stroke="#263238" stroke-width="0.496287" stroke-miterlimit="10" stroke-linecap="round" stroke-linejoin="round"/>
<path d="M609.845 235.826H559.386V212.218C580.62 191.141 612.771 163.219 618.102 181.414C624.211 202.229 611.49 223.427 609.845 235.826Z" fill="white" stroke="#263238" stroke-width="0.496287" stroke-miterlimit="10" stroke-linecap="round" stroke-linejoin="round"/>
<path d="M592.513 138.695C592.513 147.928 574.451 153.875 559.386 157.242V102.85C571.88 111.569 592.513 127.647 592.513 138.695Z" fill="white" stroke="#263238" stroke-width="0.496287" stroke-miterlimit="10" stroke-linecap="round" stroke-linejoin="round"/>
<path d="M635.952 146.275C645.437 146.275 653.126 139.026 653.126 130.084C653.126 121.143 645.437 113.894 635.952 113.894C626.468 113.894 618.779 121.143 618.779 130.084C618.779 139.026 626.468 146.275 635.952 146.275Z" fill="white" stroke="#263238" stroke-width="0.496287" stroke-miterlimit="10" stroke-linecap="round" stroke-linejoin="round"/>
<path d="M591.166 170.388C591.166 173.432 588.453 175.9 585.106 175.9C581.759 175.9 579.045 173.432 579.045 170.388C579.045 167.344 581.759 164.877 585.106 164.877C588.453 164.877 591.166 167.345 591.166 170.388Z" fill="white" stroke="#263238" stroke-width="0.496287" stroke-miterlimit="10" stroke-linecap="round" stroke-linejoin="round"/>
<path d="M644.37 186.923C644.37 191.109 641.053 194.502 636.962 194.502C632.871 194.502 629.554 191.109 629.554 186.923C629.554 182.738 632.871 179.345 636.962 179.345C641.053 179.345 644.37 182.738 644.37 186.923Z" fill="white" stroke="#263238" stroke-width="0.496287" stroke-miterlimit="10" stroke-linecap="round" stroke-linejoin="round"/>
<path d="M659.859 208.281C659.859 209.803 658.653 211.037 657.165 211.037C655.677 211.037 654.471 209.803 654.471 208.281C654.471 206.759 655.677 205.525 657.165 205.525C658.653 205.525 659.859 206.759 659.859 208.281Z" fill="white" stroke="#263238" stroke-width="0.496287" stroke-miterlimit="10" stroke-linecap="round" stroke-linejoin="round"/>
<path d="M612.332 113.508C617.329 108.396 617.329 100.108 612.332 94.9966C607.335 89.8848 599.234 89.8848 594.237 94.9966C589.24 100.109 589.24 108.396 594.237 113.508C599.234 118.62 607.335 118.62 612.332 113.508Z" fill="white" stroke="#263238" stroke-width="0.496287" stroke-miterlimit="10" stroke-linecap="round" stroke-linejoin="round"/>
<path d="M641.593 319.214C647.114 319.214 651.59 307.205 651.59 292.39C651.59 277.575 647.114 265.565 641.593 265.565C636.072 265.565 631.596 277.575 631.596 292.39C631.596 307.205 636.072 319.214 641.593 319.214Z" fill="#92E3A9" stroke="#263238" stroke-width="0.496287" stroke-miterlimit="10"/>
<path d="M610.532 275.847C613.657 285.91 619.661 292.939 623.942 291.548C628.223 290.157 629.16 280.871 626.035 270.809C622.909 260.746 616.906 253.718 612.624 255.109C608.343 256.499 607.406 265.784 610.532 275.847Z" fill="#92E3A9" stroke="#263238" stroke-width="0.496287" stroke-miterlimit="10"/>
<path d="M683.885 336.523C694.061 334.76 701.702 329.657 700.951 325.126C700.201 320.595 691.343 318.353 681.168 320.117C670.992 321.88 663.351 326.982 664.102 331.513C664.853 336.043 673.71 338.286 683.885 336.523Z" fill="#92E3A9" stroke="#263238" stroke-width="0.496287" stroke-miterlimit="10"/>
<path d="M601.12 311.723C609.619 320.345 619.661 324.085 623.549 320.074C627.437 316.063 623.699 305.822 615.199 297.2C606.7 288.576 596.658 284.838 592.77 288.848C588.883 292.858 592.62 303.1 601.12 311.723Z" fill="#92E3A9" stroke="#263238" stroke-width="0.496287" stroke-miterlimit="10"/>
<path d="M659.685 288.07C651.466 300.269 649.017 313.128 654.215 316.793C659.413 320.458 670.289 313.54 678.507 301.342C686.726 289.143 689.175 276.284 683.977 272.619C678.779 268.955 667.903 275.872 659.685 288.07Z" fill="#92E3A9" stroke="#263238" stroke-width="0.496287" stroke-miterlimit="10"/>
<path d="M640.892 317.877L640.118 399.481" stroke="#263238" stroke-width="0.496287" stroke-miterlimit="10" stroke-linecap="round"/>
<path d="M641.824 282.415L640.892 317.877" stroke="#263238" stroke-width="0.496287" stroke-miterlimit="10" stroke-linecap="round"/>
<path d="M641.756 276.63L641.823 279.347" stroke="#263238" stroke-width="0.496287" stroke-miterlimit="10" stroke-linecap="round"/>
<path d="M654.252 315.051C649.241 325.818 645.167 338.896 644.378 353.753V404.225" stroke="#263238" stroke-width="0.496287" stroke-miterlimit="10" stroke-linecap="round"/>
<path d="M671.425 288.175C666.764 293.679 659.911 302.892 654.252 315.052" stroke="#263238" stroke-width="0.496287" stroke-miterlimit="10" stroke-linecap="round"/>
<path d="M676.829 282.331C676.829 282.331 675.792 283.299 674.088 285.152" stroke="#263238" stroke-width="0.496287" stroke-miterlimit="10" stroke-linecap="round"/>
<path d="M622.927 318.838C628.759 327.085 634.617 337.88 639.134 351.742" stroke="#263238" stroke-width="0.496287" stroke-miterlimit="10" stroke-linecap="round"/>
<path d="M611.426 305.318C614.956 308.743 618.936 313.195 622.927 318.839" stroke="#263238" stroke-width="0.496287" stroke-miterlimit="10" stroke-linecap="round"/>
<path d="M599.146 295.743C599.146 295.743 602.712 297.613 607.904 302.092" stroke="#263238" stroke-width="0.496287" stroke-miterlimit="10" stroke-linecap="round"/>
<path d="M623.349 289.054C628.886 306.884 636.322 333.231 639.79 356.1" stroke="#263238" stroke-width="0.496287" stroke-miterlimit="10" stroke-linecap="round"/>
<path d="M619.974 278.477C620.959 281.484 622.106 285.054 623.347 289.053" stroke="#263238" stroke-width="0.496287" stroke-miterlimit="10" stroke-linecap="round"/>
<path d="M616.517 268.247C616.517 268.247 617.486 270.976 619.043 275.658" stroke="#263238" stroke-width="0.496287" stroke-miterlimit="10" stroke-linecap="round"/>
<path d="M664.615 329.041C657.696 331.726 648.233 339.213 644.95 349.02" stroke="#263238" stroke-width="0.496287" stroke-miterlimit="10" stroke-linecap="round"/>
<path d="M677.396 326.383C673.672 326.607 669.109 327.299 664.615 329.041" stroke="#263238" stroke-width="0.496287" stroke-miterlimit="10" stroke-linecap="round"/>
<path d="M685.678 326.592C685.678 326.592 684.447 326.412 682.415 326.331" stroke="#263238" stroke-width="0.496287" stroke-miterlimit="10" stroke-linecap="round"/>
<path d="M663.925 375.747C673.277 380.215 682.398 380.461 684.299 376.297C686.199 372.133 680.159 365.136 670.807 360.67C661.456 356.203 652.334 355.957 650.434 360.12C648.533 364.284 654.573 371.281 663.925 375.747Z" fill="#92E3A9" stroke="#263238" stroke-width="0.496287" stroke-miterlimit="10"/>
<path d="M664.22 363.632C661.031 361.65 656.893 359.566 652.227 358.386C652.227 358.386 649.101 356.252 645.791 358.509C644.526 359.372 644.948 365.841 644.948 365.841V399.482" stroke="#263238" stroke-width="0.496287" stroke-miterlimit="10" stroke-linecap="round"/>
<path d="M670.919 368.621C670.919 368.621 670.005 367.757 668.379 366.508" stroke="#263238" stroke-width="0.496287" stroke-miterlimit="10" stroke-linecap="round"/>
<path d="M596.803 336.523C586.628 334.76 578.987 329.657 579.737 325.126C580.487 320.595 589.345 318.353 599.521 320.117C609.697 321.88 617.338 326.982 616.587 331.513C615.836 336.043 606.979 338.286 596.803 336.523Z" fill="#92E3A9" stroke="#263238" stroke-width="0.496287" stroke-miterlimit="10"/>
<path d="M615.855 328.958C617.074 329.421 618.289 329.962 619.481 330.59C627.89 335.02 633.031 344.043 633.031 353.719V398.188" stroke="#263238" stroke-width="0.496287" stroke-miterlimit="10" stroke-linecap="round"/>
<path d="M602.222 326.33C606.064 326.479 610.992 327.108 615.855 328.958" stroke="#263238" stroke-width="0.496287" stroke-miterlimit="10" stroke-linecap="round"/>
<path d="M595.01 326.592C595.01 326.592 595.822 326.473 597.213 326.385" stroke="#263238" stroke-width="0.496287" stroke-miterlimit="10" stroke-linecap="round"/>
<path d="M607.02 366.984C598.078 372.256 589.011 373.303 586.768 369.321C584.526 365.34 589.956 357.838 598.898 352.566C607.839 347.294 616.907 346.247 619.149 350.229C621.392 354.21 615.962 361.712 607.02 366.984Z" fill="#92E3A9" stroke="#263238" stroke-width="0.496287" stroke-miterlimit="10"/>
<path d="M604.849 355.596C607.903 353.207 612.093 350.481 616.994 348.736C616.994 348.736 628.086 346.864 630.616 354.196" stroke="#263238" stroke-width="0.496287" stroke-miterlimit="10" stroke-linecap="round"/>
<path d="M599.453 360.498C599.453 360.498 600.005 359.878 601.023 358.902" stroke="#263238" stroke-width="0.496287" stroke-miterlimit="10" stroke-linecap="round"/>
<path d="M628.93 354.627C628.93 354.627 641.999 352.04 641.999 361.097C641.999 370.154 632.724 377.486 628.93 387.837C625.135 398.188 617.968 398.62 614.173 388.268C610.379 377.917 615.86 358.94 628.93 354.627Z" fill="#92E3A9" stroke="#263238" stroke-width="0.496287" stroke-miterlimit="10"/>
<path d="M637.783 355.059C637.783 355.059 626.4 359.804 623.027 374.898L637.783 355.059Z" fill="#92E3A9"/>
<path d="M637.783 355.059C637.783 355.059 626.4 359.804 623.027 374.898" stroke="#263238" stroke-width="0.496287" stroke-miterlimit="10"/>
<path d="M636.939 374.898V399.481" stroke="#263238" stroke-width="0.496287" stroke-miterlimit="10" stroke-linecap="round"/>
<path d="M616.001 447.355C613.015 437.832 611.273 426.837 611.273 415.888C611.273 409.105 611.947 402.622 613.164 396.647H666.415C667.632 402.622 668.306 409.106 668.306 415.888C668.306 426.837 666.562 437.833 663.577 447.355H616.001Z" fill="#263238"/>
<path d="M667.781 405.642C667.934 407.12 668.051 408.622 668.137 410.14H611.442C611.529 408.621 611.646 407.12 611.799 405.642H667.781Z" fill="#7A7A7A"/>
<path d="M612.045 428.631C611.868 427.14 611.713 425.641 611.596 424.133H667.983C667.866 425.641 667.711 427.14 667.534 428.631H612.045Z" fill="#7A7A7A"/>
<path d="M661.423 416.138C661.423 417.39 662.451 418.404 663.718 418.404C664.985 418.404 666.013 417.39 666.013 416.138C666.013 414.886 664.986 413.872 663.718 413.872C662.451 413.871 661.423 414.886 661.423 416.138Z" fill="#8C8C8C"/>
<path d="M649.95 416.138C649.95 417.39 650.978 418.404 652.245 418.404C653.512 418.404 654.54 417.39 654.54 416.138C654.54 414.886 653.512 413.872 652.245 413.872C650.978 413.871 649.95 414.886 649.95 416.138Z" fill="#8C8C8C"/>
<path d="M638.479 416.138C638.479 417.39 639.506 418.404 640.773 418.404C642.04 418.404 643.068 417.39 643.068 416.138C643.068 414.886 642.04 413.872 640.773 413.872C639.506 413.871 638.479 414.886 638.479 416.138Z" fill="#8C8C8C"/>
<path d="M627.006 416.138C627.006 417.39 628.034 418.404 629.301 418.404C630.568 418.404 631.596 417.39 631.596 416.138C631.596 414.886 630.568 413.872 629.301 413.872C628.034 413.871 627.006 414.886 627.006 416.138Z" fill="#8C8C8C"/>
<path d="M615.534 416.138C615.534 417.39 616.561 418.404 617.829 418.404C619.096 418.404 620.124 417.39 620.124 416.138C620.124 414.886 619.097 413.872 617.829 413.872C616.562 413.871 615.534 414.886 615.534 416.138Z" fill="#8C8C8C"/>
<path d="M523.571 222.689L521.809 216.477C521.809 216.477 521.221 211.267 520.242 210.064C519.263 208.862 515.541 206.858 514.169 205.456C512.798 204.053 511.623 204.052 511.427 205.255C511.231 206.458 511.623 208.261 512.211 208.662C512.798 209.063 514.757 210.867 514.757 210.867C514.757 210.867 510.39 208.069 509.214 207.067C508.039 206.065 503.787 203.853 503.2 204.654C502.612 205.456 503.396 207.259 503.396 207.259C503.396 207.259 500.852 206.689 500.852 208.493C500.852 210.296 502.031 210.906 502.031 210.906C502.031 210.906 500.353 211.477 500.744 212.881C501.136 214.284 503.424 215.404 503.424 215.404C503.424 215.404 501.177 215.774 502.352 217.378C503.528 218.981 508.488 222.289 511.035 223.492C513.581 224.694 516.715 225.696 516.715 225.696L522.984 230.305L523.571 222.689Z" fill="white" stroke="#263238" stroke-width="0.496287" stroke-miterlimit="10" stroke-linecap="round" stroke-linejoin="round"/>
<path d="M503.395 207.26C503.395 207.26 507.116 210.065 507.899 210.867C508.683 211.668 510.822 212.881 510.822 212.881" stroke="#263238" stroke-width="0.496287" stroke-miterlimit="10" stroke-linecap="round" stroke-linejoin="round"/>
<path d="M502.149 211.082L508.418 214.889L509.322 215.513" stroke="#263238" stroke-width="0.496287" stroke-miterlimit="10" stroke-linecap="round" stroke-linejoin="round"/>
<path d="M514.757 210.867L515.54 214.274" stroke="#263238" stroke-width="0.496287" stroke-miterlimit="10" stroke-linecap="round" stroke-linejoin="round"/>
<path d="M540.418 232.108L523.572 222.689L520.633 230.906L538.067 247.137L540.418 232.108Z" fill="#92E3A9" stroke="#263238" stroke-width="0.496287" stroke-miterlimit="10" stroke-linecap="round" stroke-linejoin="round"/>
<path d="M553.219 190.939C553.219 190.939 538.352 206.549 536.982 215.355C535.612 224.161 534.83 269.389 534.83 269.389C534.83 269.389 545.199 271.19 546.176 271.19C547.154 271.19 552.436 271.19 552.436 271.19C552.436 271.19 549.893 230.965 551.654 217.156C553.414 203.348 559.87 190.939 559.87 190.939C559.87 190.939 557.132 189.739 553.219 190.939Z" fill="#92E3A9" stroke="#263238" stroke-width="0.496287" stroke-miterlimit="10" stroke-linecap="round" stroke-linejoin="round"/>
<path d="M542.362 266.638L543.349 293.574C543.349 293.574 537.425 312.765 541.703 333.641C545.982 354.516 546.311 371.688 546.311 371.688C546.311 371.688 548.285 386.503 548.285 393.573C548.285 400.643 545.982 428.926 545.982 428.926C545.982 428.926 543.678 432.293 541.045 435.66C538.412 439.026 531.829 441.046 530.842 443.741C529.855 446.434 534.791 445.424 538.741 445.424C542.691 445.424 549.603 443.741 551.577 442.731C553.552 441.721 557.83 442.394 558.819 441.721C559.806 441.047 561.122 437.007 560.793 433.976C560.464 430.946 563.426 404.347 565.401 393.909C567.375 383.471 564.413 363.27 564.413 363.27C564.413 363.27 570.338 308.725 570.666 305.359C570.995 301.992 574.615 286.504 573.957 280.779C573.299 275.056 572.641 265.965 572.641 264.618C572.642 263.272 542.362 266.638 542.362 266.638Z" fill="#263238" stroke="#263238" stroke-width="0.496287" stroke-miterlimit="10" stroke-linecap="round" stroke-linejoin="round"/>
<path d="M557.172 297.614C557.172 297.614 553.881 332.294 555.197 348.455C556.514 364.617 558.818 382.798 560.463 387.176C562.109 391.553 564.083 414.448 564.083 420.845C564.083 427.242 564.412 438.016 564.412 438.016C564.412 438.016 558.489 444.076 554.209 446.097C549.931 448.117 548.285 449.801 550.589 450.811C552.893 451.821 557.171 452.831 564.412 451.821C571.654 450.811 577.906 450.811 578.894 448.117C579.881 445.424 579.552 438.353 579.552 438.353C579.552 438.353 581.197 406.03 581.197 390.543C581.197 375.055 576.59 357.21 576.59 357.21L580.539 328.254C580.539 328.254 588.439 312.766 588.768 298.288C589.097 283.81 581.199 266.976 580.539 265.966C579.881 264.956 552.235 267.986 552.235 267.986" fill="#263238"/>
<path d="M557.172 297.614C557.172 297.614 553.881 332.294 555.197 348.455C556.514 364.617 558.818 382.798 560.463 387.176C562.109 391.553 564.083 414.448 564.083 420.845C564.083 427.242 564.412 438.016 564.412 438.016C564.412 438.016 558.489 444.076 554.209 446.097C549.931 448.117 548.285 449.801 550.589 450.811C552.893 451.821 557.171 452.831 564.412 451.821C571.654 450.811 577.906 450.811 578.894 448.117C579.881 445.424 579.552 438.353 579.552 438.353C579.552 438.353 581.197 406.03 581.197 390.543C581.197 375.055 576.59 357.21 576.59 357.21L580.539 328.254C580.539 328.254 588.439 312.766 588.768 298.288C589.097 283.81 581.199 266.976 580.539 265.966C579.881 264.956 552.235 267.986 552.235 267.986" stroke="#263238" stroke-width="0.496287" stroke-miterlimit="10" stroke-linecap="round" stroke-linejoin="round"/>
<path d="M547.958 296.604C547.958 296.604 548.945 300.644 553.552 303.001" stroke="white" stroke-width="0.496287" stroke-miterlimit="10" stroke-linecap="round" stroke-linejoin="round"/>
<path d="M560.793 433.976C560.785 433.909 560.782 433.815 560.777 433.724C553.825 437.139 546.969 434.65 546.969 434.65C546.969 434.65 546.969 434.65 546.969 433.303C546.969 431.956 545.982 428.926 545.982 428.926C545.982 428.926 543.678 432.293 541.045 435.66C538.412 439.026 531.829 441.046 530.842 443.741C529.855 446.434 534.791 445.424 538.741 445.424C542.692 445.424 549.603 443.741 551.577 442.731C553.552 441.721 557.83 442.394 558.819 441.721C559.806 441.047 561.122 437.006 560.793 433.976Z" fill="white" stroke="#263238" stroke-width="0.496287" stroke-miterlimit="10" stroke-linecap="round" stroke-linejoin="round"/>
<path d="M578.895 448.118C579.655 446.042 579.635 441.378 579.585 439.343C574.82 440.74 568.693 441.384 568.693 441.384C568.693 441.384 568.693 441.384 567.705 439.027C566.718 436.671 564.414 438.017 564.414 438.017C564.414 438.017 558.49 444.077 554.211 446.098C549.933 448.119 548.287 449.802 550.591 450.812C552.895 451.822 557.173 452.832 564.414 451.822C571.654 450.811 577.907 450.811 578.895 448.118Z" fill="white" stroke="#263238" stroke-width="0.496287" stroke-miterlimit="10" stroke-linecap="round" stroke-linejoin="round"/>
<path d="M552.828 195.342C552.828 195.342 538.547 213.154 538.156 217.356C537.765 221.558 541.287 268.589 541.873 268.989C542.459 269.389 549.698 271.19 552.437 271.19C555.175 271.19 558.501 270.79 558.501 270.79C558.501 270.79 556.937 224.361 558.11 214.555C559.284 204.749 567.109 195.943 568.674 191.741C570.239 187.538 563.979 187.338 562.218 187.939C560.457 188.537 552.828 195.342 552.828 195.342Z" fill="white" stroke="#263238" stroke-width="0.496287" stroke-miterlimit="10" stroke-linecap="round" stroke-linejoin="round"/>
<path d="M545.395 142.909C545.395 142.909 538.939 152.115 539.33 154.717C539.721 157.319 540.112 159.319 539.33 160.721C538.548 162.122 534.244 163.522 534.635 165.723C535.026 167.925 538.548 169.726 538.548 169.726C538.548 169.726 540.504 180.933 542.656 182.133C544.807 183.334 550.481 181.733 550.481 181.733L551.851 192.14C551.851 192.14 546.373 200.745 550.09 200.946C553.807 201.146 570.239 187.537 570.239 187.537L568.674 181.534C568.674 181.534 572.196 173.529 572.391 165.524C572.587 157.518 565.153 144.31 559.284 141.508C553.415 138.706 548.915 140.307 545.395 142.909Z" fill="white" stroke="#263238" stroke-width="0.496287" stroke-miterlimit="10" stroke-linecap="round" stroke-linejoin="round"/>
<path d="M550.481 181.733L555.763 180.533L551.459 187.537L550.481 181.733Z" fill="#263238" stroke="#263238" stroke-width="0.496287" stroke-miterlimit="10" stroke-linecap="round" stroke-linejoin="round"/>
<path d="M541.873 169.926C541.873 169.926 545.199 171.126 547.938 167.324" stroke="#263238" stroke-width="0.496287" stroke-miterlimit="10" stroke-linecap="round" stroke-linejoin="round"/>
<path d="M546.177 159.319C546.177 160.424 545.696 161.32 545.101 161.32C544.507 161.32 544.025 160.424 544.025 159.319C544.025 158.215 544.507 157.319 545.101 157.319C545.696 157.318 546.177 158.214 546.177 159.319Z" fill="#263238"/>
<path d="M542.656 154.516C542.656 154.516 545.981 151.714 547.742 155.117" stroke="#263238" stroke-width="0.496287" stroke-miterlimit="10" stroke-linecap="round" stroke-linejoin="round"/>
<path d="M546.959 143.109C546.959 143.109 552.046 151.113 555.762 156.117C559.479 161.12 563.392 167.925 562.218 171.527C561.045 175.13 556.936 173.729 558.11 176.13C559.284 178.531 566.131 182.134 570.435 181.733C574.739 181.333 579.043 176.13 582.368 171.126C585.694 166.122 590.585 156.917 584.716 145.71C578.848 134.503 570.436 129.3 562.024 128.9C553.612 128.5 539.527 131.502 538.157 137.505C536.788 143.509 542.265 147.912 542.265 147.912L546.959 143.109Z" fill="#263238" stroke="#263238" stroke-width="0.496287" stroke-miterlimit="10" stroke-linecap="round" stroke-linejoin="round"/>
<path d="M560.848 193.541C560.848 193.541 545.198 216.556 544.416 222.76C543.634 228.964 548.133 272.392 548.133 272.392C548.133 272.392 558.305 273.793 568.087 272.392C577.868 270.991 587.453 266.188 587.453 266.188C587.453 266.188 581.976 242.773 581.976 239.17C581.976 235.568 583.346 210.952 579.824 203.147C576.302 195.342 570.239 187.537 570.239 187.537C570.239 187.537 569.065 187.337 568.478 187.337C567.892 187.337 564.175 189.938 560.848 193.541Z" fill="#92E3A9" stroke="#263238" stroke-width="0.496287" stroke-miterlimit="10" stroke-linecap="round" stroke-linejoin="round"/>
<path d="M525.05 228.563L519.963 225.762C519.963 225.762 518.202 220.358 517.225 218.757C516.247 217.156 513.508 217.557 512.334 217.756C511.16 217.957 507.639 216.956 505.487 215.955C503.335 214.954 502.356 216.155 503.14 217.356C503.922 218.557 505.683 219.958 505.683 219.958C505.683 219.958 496.684 220.358 496.098 220.358C495.511 220.358 491.99 219.357 492.772 221.959C493.554 224.56 500.205 229.163 503.532 229.764C506.857 230.364 515.465 229.964 515.465 229.964L520.552 233.967L525.05 228.563Z" fill="white" stroke="#263238" stroke-width="0.496287" stroke-miterlimit="10" stroke-linecap="round" stroke-linejoin="round"/>
<path d="M505.682 219.958L510.573 221.558L513.116 222.359" stroke="#263238" stroke-width="0.496287" stroke-miterlimit="10" stroke-linecap="round" stroke-linejoin="round"/>
<path d="M493.114 220.701C493.114 220.701 497.28 223.44 498.171 223.897C499.064 224.354 505.759 224.81 505.759 224.81" stroke="#263238" stroke-width="0.496287" stroke-miterlimit="10" stroke-linecap="round" stroke-linejoin="round"/>
<path d="M494.602 224.505C494.602 224.505 501.445 227.244 502.189 227.244C502.933 227.244 506.206 227.092 506.206 227.092" stroke="#263238" stroke-width="0.496287" stroke-miterlimit="10" stroke-linecap="round" stroke-linejoin="round"/>
<path d="M562.218 206.549L548.916 240.771L525.049 228.563L518.202 237.369C518.202 237.369 546.372 259.583 548.523 260.584C550.675 261.585 554.588 261.985 555.37 261.384C556.153 260.784 577.671 223.96 577.671 223.96" fill="#92E3A9"/>
<path d="M562.218 206.549L548.916 240.771L525.049 228.563L518.202 237.369C518.202 237.369 546.372 259.583 548.523 260.584C550.675 261.585 554.588 261.985 555.37 261.384C556.153 260.784 577.671 223.96 577.671 223.96" stroke="#263238" stroke-width="0.496287" stroke-miterlimit="10" stroke-linecap="round" stroke-linejoin="round"/>
<path d="M556.628 304.359C556.628 304.359 554.607 342.761 556.628 357.532C558.65 372.302 562.114 394.458 562.114 394.458" stroke="white" stroke-width="0.496287" stroke-miterlimit="10" stroke-linecap="round" stroke-linejoin="round"/>
<path d="M422.878 270.753C422.878 270.753 420.505 313.794 420.057 321.839C419.61 329.885 420.513 371.305 423.193 375.477C425.874 379.649 429.139 420.473 429.139 420.473C429.139 420.473 426.76 421.367 426.677 422.857C426.594 424.347 426.653 428.519 426.653 428.519C426.653 428.519 418.715 435.075 414.247 436.862C409.778 438.65 409.954 440.736 412.542 441.332C415.131 441.927 422.33 443.417 427.64 442.226C432.949 441.033 438.341 438.352 440.705 437.756C443.069 437.161 446.24 437.756 447.796 435.968C449.351 434.18 448.501 428.518 448.501 428.518C448.501 428.518 449.458 427.028 448.591 421.665C447.724 416.301 446.708 413.619 446.79 412.129C446.873 410.639 446.627 362.663 446.627 362.663L446.712 308.728C446.712 308.728 451.062 361.472 452.079 364.153C453.095 366.835 460.68 408.553 461.147 410.639C461.613 412.725 461.715 421.366 461.715 421.366C461.715 421.366 459.494 424.644 459.444 425.538C459.395 426.432 460.487 432.988 460.487 432.988C460.487 432.988 453.323 441.332 449.42 443.418C445.517 445.504 450.013 448.483 453.782 448.782C457.552 449.08 461.905 449.378 467.265 447.292C472.624 445.206 479.737 437.756 481.293 435.969C482.849 434.181 481.833 431.5 481.332 430.009C480.833 428.519 480.025 427.327 480.382 426.135C480.74 424.943 482.693 416.004 482.926 411.832C483.157 407.659 483.373 403.786 483.373 403.786C483.373 403.786 483.841 379.649 482.365 369.518C480.889 359.386 477.547 340.911 477.547 340.911C477.547 340.911 474.821 295.617 475.228 293.531C475.635 291.445 477.272 284.332 476.672 278.036C476.073 271.74 475.179 268.202 475.179 268.202L422.878 270.753Z" fill="#263238" stroke="#263238" stroke-width="0.496287" stroke-miterlimit="10" stroke-linecap="round" stroke-linejoin="round"/>
<path d="M445.478 187.465C445.478 187.465 422.351 195.162 422.312 196.938C422.274 198.714 416.62 236.608 416.62 236.608L388.359 256.363C388.359 256.363 392.35 259.126 393.066 261.691C393.782 264.256 393.782 264.256 393.782 264.256L423.364 254.567C423.364 254.567 421.878 269.567 422.624 270.751C423.37 271.935 427.782 273.12 427.782 273.12C427.782 273.12 454.178 274.698 462.868 274.304C471.559 273.909 475.237 273.317 475.85 271.739C476.463 270.16 476.836 270.752 476.889 268.383C476.941 266.015 492.782 194.568 492.809 193.385C492.834 192.2 492.102 190.424 490.576 189.635C489.05 188.846 468.541 182.727 468.541 182.727L445.478 187.465Z" fill="white" stroke="#263238" stroke-width="0.496287" stroke-miterlimit="10" stroke-linecap="round" stroke-linejoin="round"/>
<path d="M441.819 195.952L443.904 206.51L433.931 257.427L437.415 271.667L447.879 256.133L447.71 206.079L455.979 194.428L452.326 187.7L441.819 195.952Z" fill="#92E3A9" stroke="#263238" stroke-width="0.496287" stroke-miterlimit="10" stroke-linecap="round" stroke-linejoin="round"/>
<path d="M434.722 253.39L445.049 260.333L447.879 256.133L447.871 253.787L436.183 245.93L434.722 253.39Z" fill="#263238"/>
<path d="M440.621 223.271L439.045 231.315L447.822 239.4L447.79 229.875L440.621 223.271Z" fill="#263238"/>
<path d="M442.589 199.848L443.904 206.51L443.237 209.917L447.737 214.042L447.711 206.079L448.371 205.148L442.589 199.848Z" fill="#263238"/>
<path d="M427.335 214.377L427.818 209.768" stroke="#263238" stroke-width="0.496287" stroke-miterlimit="10" stroke-linecap="round" stroke-linejoin="round"/>
<path d="M423.429 251.609L426.797 219.509" stroke="#263238" stroke-width="0.496287" stroke-miterlimit="10" stroke-linecap="round" stroke-linejoin="round"/>
<path d="M444.602 201.527L438.344 187.268L446.564 181.939L444.602 201.527Z" fill="white" stroke="#263238" stroke-width="0.496287" stroke-miterlimit="10" stroke-linecap="round" stroke-linejoin="round"/>
<path d="M438.344 187.268L435.966 198.913L441.819 195.952L438.344 187.268Z" fill="white" stroke="#263238" stroke-width="0.496287" stroke-miterlimit="10" stroke-linecap="round" stroke-linejoin="round"/>
<path d="M445.292 133.745C445.292 133.745 438.697 156.52 438.224 166.01C437.751 175.499 440.577 179.566 442.945 180.38L445.048 181.193L444.602 201.527L451.718 191.225L452.325 187.7L466.145 173.872L469.256 164.925C469.256 164.925 474.533 166.01 476.23 161.129C477.927 156.248 475.867 153.538 475.867 153.538C475.867 153.538 482.924 145.946 480.475 136.728C478.027 127.51 471.603 118.292 459.412 118.292C447.22 118.292 438.839 125.883 445.292 133.745Z" fill="white" stroke="#263238" stroke-width="0.496287" stroke-miterlimit="10" stroke-linecap="round" stroke-linejoin="round"/>
<path d="M480.476 136.728C478.028 127.51 471.604 118.292 459.413 118.292C447.221 118.292 438.839 125.883 445.293 133.745C445.293 133.745 449.456 137.27 452.383 136.728C455.311 136.186 457.213 134.017 462.189 136.728C467.165 139.44 467.648 141.608 465.981 145.133C464.314 148.658 464.543 150.284 465.308 151.64C465.393 151.789 465.479 151.964 465.567 152.153L460.788 164.383C460.788 164.383 459.269 161.129 452.968 158.418C446.666 155.707 439.156 159.774 439.156 159.774C434.224 181.69 445.048 181.193 445.048 181.193C445.048 181.193 457.822 178.753 461.61 175.229C465.398 171.704 465.981 169.264 466.33 165.468C466.537 163.214 466.524 158.186 466.48 154.475C466.819 155.448 467.062 156.25 467.062 156.25C467.062 156.25 468.175 153.81 470.844 152.996C473.512 152.183 475.868 153.539 475.868 153.539C475.868 153.539 482.924 145.946 480.476 136.728Z" fill="#263238" stroke="#263238" stroke-width="0.496287" stroke-miterlimit="10" stroke-linecap="round" stroke-linejoin="round"/>
<path d="M450.338 145.404L448.069 152.182C448.069 152.182 440.547 156.791 442.126 157.333C443.704 157.875 449.04 156.248 449.04 156.248" stroke="#263238" stroke-width="0.496287" stroke-miterlimit="10" stroke-linecap="round" stroke-linejoin="round"/>
<path d="M441.982 163.84C441.982 163.84 445.091 167.094 451.011 163.027" stroke="white" stroke-width="0.496287" stroke-miterlimit="10" stroke-linecap="round" stroke-linejoin="round"/>
<path d="M455.435 151.409C455.257 152.352 454.628 153.033 454.027 152.928C453.426 152.823 453.083 151.973 453.259 151.03C453.437 150.086 454.066 149.406 454.667 149.511C455.268 149.615 455.612 150.465 455.435 151.409Z" fill="#263238"/>
<path d="M446.083 150.076C445.905 151.02 445.276 151.7 444.675 151.595C444.074 151.49 443.731 150.641 443.907 149.697C444.084 148.754 444.714 148.073 445.315 148.178C445.916 148.283 446.26 149.132 446.083 150.076Z" fill="#263238"/>
<path d="M443.943 144.421C443.943 144.421 445.923 143.222 448.763 144.421" stroke="#263238" stroke-width="0.496287" stroke-miterlimit="10" stroke-linecap="round" stroke-linejoin="round"/>
<path d="M453.96 145.088C453.96 145.088 457.096 144.687 459.38 147.487" stroke="#263238" stroke-width="0.496287" stroke-miterlimit="10" stroke-linecap="round" stroke-linejoin="round"/>
<path d="M451.719 191.224L454.092 199.307L471.271 181.347L466.145 173.872L452.326 187.7L451.719 191.224Z" fill="white" stroke="#263238" stroke-width="0.496287" stroke-miterlimit="10" stroke-linecap="round" stroke-linejoin="round"/>
<path d="M402.936 271.186C402.936 271.186 399.236 269.201 400.906 268.916C402.576 268.633 405.463 269.767 405.463 269.767C405.463 269.767 401.917 267.072 403.716 267.214C405.516 267.356 408.378 269.625 408.378 269.625C408.378 269.625 407.461 267.214 409.247 267.922C411.034 268.632 411.979 269.766 411.979 269.766C411.979 269.766 409.985 272.177 408.316 272.461C406.646 272.745 407.056 273.029 405.956 272.604C404.855 272.179 402.936 271.186 402.936 271.186Z" fill="white" stroke="#263238" stroke-width="0.496287" stroke-miterlimit="10" stroke-linecap="round" stroke-linejoin="round"/>
<path d="M428.294 258.517C428.294 258.517 418.82 258.52 417.43 259.682C416.041 260.844 414.157 263.866 413.465 264.332C412.774 264.797 405.269 265.029 405.461 266.656C405.652 268.284 410.192 268.516 410.192 268.516L406.934 272.004C406.934 272.004 399.945 269.446 399.46 270.842C398.975 272.237 406.863 275.259 408.681 275.259C410.499 275.259 414.16 274.096 414.858 273.399C415.554 272.701 423.033 265.753 423.033 265.753C423.359 266.521 428.794 265.225 429.028 264.414C429.232 263.703 428.294 258.517 428.294 258.517Z" fill="white" stroke="#263238" stroke-width="0.496287" stroke-miterlimit="10" stroke-linecap="round" stroke-linejoin="round"/>
<path d="M410.192 268.516C410.192 268.516 414.355 268.916 416.025 268.633C417.695 268.35 419.69 265.938 419.69 265.938" stroke="#263238" stroke-width="0.496287" stroke-miterlimit="10" stroke-linecap="round" stroke-linejoin="round"/>
<path d="M474.435 204.241L465.309 242.135L428.294 258.516L429.269 266.806C429.269 266.806 461.073 263.093 468.834 261.119C476.594 259.146 486.168 253.62 487.421 249.277C488.673 244.935 495.01 198.518 494.896 194.964C494.78 191.412 494.403 191.017 492.882 190.03C491.36 189.043 480.025 186.872 480.025 186.872" fill="white"/>
<path d="M474.435 204.241L465.309 242.135L428.294 258.516L429.269 266.806C429.269 266.806 461.073 263.093 468.834 261.119C476.594 259.146 486.168 253.62 487.421 249.277C488.673 244.935 495.01 198.518 494.896 194.964C494.78 191.412 494.403 191.017 492.882 190.03C491.36 189.043 480.025 186.872 480.025 186.872" stroke="#263238" stroke-width="0.496287" stroke-miterlimit="10" stroke-linecap="round" stroke-linejoin="round"/>
<path d="M433.937 256.345L435.294 264.832" stroke="#263238" stroke-width="0.496287" stroke-miterlimit="10" stroke-linecap="round" stroke-linejoin="round"/>
<path d="M392.078 253.996C392.078 253.996 398.23 254.983 397.504 261.693" stroke="#263238" stroke-width="0.496287" stroke-miterlimit="10" stroke-linecap="round" stroke-linejoin="round"/>
<path d="M388.36 256.364L383.151 258.937C383.151 258.937 379.762 258.007 378.854 258.007C377.944 258.007 376.782 259.169 374.082 258.007C371.38 256.844 369.143 255.217 369.097 257.309C369.051 259.402 370.379 261.029 371.733 261.493C373.086 261.958 374.661 262.656 374.661 262.656L366.059 271.49C366.059 271.49 361.645 275.907 362.765 276.604C363.885 277.302 373.936 274.976 375.537 274.512C377.138 274.047 386.31 270.327 387.714 268.468C389.118 266.608 389.825 265.446 389.825 265.446L393.782 264.257C393.782 264.257 392.786 258.44 388.36 256.364Z" stroke="#263238" stroke-width="0.496287" stroke-miterlimit="10" stroke-linecap="round" stroke-linejoin="round"/>
<path d="M384.588 265.911C384.588 265.911 380.059 265.214 378.22 266.144C376.381 267.075 373.79 271.259 373.79 271.259C373.79 271.259 367.841 273.119 366.446 274.514" stroke="#263238" stroke-width="0.496287" stroke-miterlimit="10" stroke-linecap="round" stroke-linejoin="round"/>
<path d="M709.406 440.347H17.8604" stroke="#263238" stroke-width="0.496287" stroke-miterlimit="10" stroke-linecap="round" stroke-linejoin="round"/>
<path d="M165.49 296.969C165.49 296.969 166.349 303.028 167.126 304.881C167.902 306.733 168.677 309.379 167.643 311.232C166.608 313.085 158.295 316.874 158.295 316.874L158.071 293.236L165.085 292.097L165.49 296.969Z" fill="white" stroke="#263238" stroke-width="0.496287" stroke-miterlimit="10" stroke-linecap="round" stroke-linejoin="round"/>
<path d="M163.463 302.566C163.463 302.566 163.245 305.144 162.727 308.055C162.208 310.966 162.108 314.338 159.003 314.074" fill="white"/>
<path d="M163.463 302.566C163.463 302.566 163.245 305.144 162.727 308.055C162.208 310.966 162.108 314.338 159.003 314.074" stroke="#263238" stroke-width="0.496287" stroke-miterlimit="10" stroke-linecap="round" stroke-linejoin="round"/>
<path d="M156.778 192.405L161.952 250.363L165.573 294.294L157.041 294.555L152.638 255.391L156.778 192.405Z" fill="white" stroke="#263238" stroke-width="0.496287" stroke-miterlimit="10" stroke-linecap="round" stroke-linejoin="round"/>
<path d="M101.542 260.622C101.542 260.622 99.0347 283.215 99.5461 286.119C100.058 289.024 101.791 354.217 101.791 354.217C101.791 354.217 98.008 377.132 98.1509 381.327C98.2938 385.523 99.5491 431.675 99.5491 431.675C99.5491 431.675 96.9823 440.389 96.5872 442.325C96.1921 444.262 96.7034 447.167 97.9391 447.812C99.1747 448.457 107.337 449.426 110.834 448.781C114.331 448.136 118.459 447.489 119.275 442.972C120.092 438.454 117.519 431.999 117.914 430.062C118.309 428.126 118.771 424.576 118.864 422.317C118.956 420.058 119.036 418.121 119.036 418.121C119.036 418.121 125.521 375.519 125.575 374.229C125.628 372.939 129.496 332.596 129.496 332.596C129.496 332.596 129.051 389.397 128.679 398.434C128.308 407.471 126.949 417.476 126.896 418.766C126.843 420.057 125.561 435.872 125.823 437.162C126.085 438.454 128.254 439.421 130.134 439.744C132.014 440.067 137.075 439.744 138.02 439.744C138.967 439.744 145.841 441.358 150.258 441.358C154.676 441.358 159.749 440.713 158.922 437.808C158.096 434.903 150.959 431.999 148.804 430.707C146.649 429.416 143.812 421.671 143.812 421.671C143.812 421.671 145.957 415.539 146.09 412.311C146.223 409.084 155.748 361.641 157.238 348.409C158.729 335.177 157.428 274.824 157.428 274.824L158.592 260.95C158.595 260.949 121.428 268.045 101.542 260.622Z" fill="#263238" stroke="#263238" stroke-width="0.496287" stroke-miterlimit="10" stroke-linecap="round" stroke-linejoin="round"/>
<path d="M111.247 175.204C111.247 175.204 98.8298 185.524 93.1385 188.701C87.4472 191.876 80.9795 196.11 80.9795 196.11C80.9795 196.11 73.4772 260.949 74.2536 263.331C75.0301 265.713 78.1339 299.852 78.1339 299.852L89.5164 299.323L92.3621 257.773L98.3125 237.66L99.089 261.478C99.089 261.478 98.5717 264.919 101.417 266.242C104.263 267.566 129.097 269.947 141.515 269.153C153.933 268.359 157.813 263.596 158.33 260.949C158.847 258.303 159.621 211.833 159.879 206.805C160.138 201.777 157.585 188.641 151.443 181.305C149.76 179.295 130.908 175.734 130.908 175.734C130.908 175.734 117.973 171.498 111.247 175.204Z" fill="white" stroke="#263238" stroke-width="0.496287" stroke-miterlimit="10" stroke-linecap="round" stroke-linejoin="round"/>
<path d="M127.433 187.577L134.449 197.286L131.973 256.386C131.973 256.386 137.337 263.562 138.162 264.829C138.988 266.096 145.59 254.697 145.59 254.697L137.75 198.129L141.05 187.998L139.178 182.071L129.908 179.134L127.433 187.577Z" fill="#92E3A9" stroke="#263238" stroke-width="0.496287" stroke-miterlimit="10" stroke-linecap="round" stroke-linejoin="round"/>
<path d="M133.433 221.524L140.36 216.965L139.169 208.368L133.837 211.877L133.433 221.524Z" fill="#263238"/>
<path d="M134.448 197.286L134.3 200.821L137.791 198.429L137.75 198.13L141.051 187.999L140.714 186.931L131.519 193.231L134.448 197.286Z" fill="#263238"/>
<path d="M145.59 254.697L144.645 247.88L132.066 254.134L131.972 256.386C131.972 256.386 133.833 258.876 135.532 261.182L144.335 256.805C145.084 255.571 145.59 254.697 145.59 254.697Z" fill="#263238"/>
<path d="M132.919 233.787L132.51 243.547L143.048 236.36L141.848 227.698L132.919 233.787Z" fill="#263238"/>
<path d="M98.3125 237.66L107.884 215.959" stroke="#263238" stroke-width="0.496287" stroke-miterlimit="10" stroke-linecap="round" stroke-linejoin="round"/>
<path d="M136.127 191.133L141.32 175.193L134.396 171.651L136.127 191.133Z" fill="white" stroke="#263238" stroke-width="0.496287" stroke-miterlimit="10" stroke-linecap="round" stroke-linejoin="round"/>
<path d="M141.32 175.193L148.245 183.827L139.178 182.071L141.32 175.193Z" fill="white" stroke="#263238" stroke-width="0.496287" stroke-miterlimit="10" stroke-linecap="round" stroke-linejoin="round"/>
<path d="M133.314 125.161C133.314 125.161 135.694 135.345 138.291 141.323C140.888 147.3 141.536 151.063 140.671 157.04C139.805 163.018 139.805 165.674 138.507 166.338C137.209 167.002 133.746 167.667 133.746 167.667L136.127 191.133L130.716 183.384L113.187 166.338L103.666 140.437C103.666 140.437 98.6892 134.237 105.181 126.49C111.674 118.741 128.986 119.626 133.314 125.161Z" fill="white" stroke="#263238" stroke-width="0.496287" stroke-miterlimit="10" stroke-linecap="round" stroke-linejoin="round"/>
<path d="M106.047 148.185L109.077 146.857C109.077 146.857 106.48 144.643 107.346 141.322C108.212 138.001 117.084 136.008 116.002 133.352C114.92 130.696 104.749 130.253 111.458 127.154C118.166 124.055 130.069 128.261 133.964 128.703C137.859 129.146 134.18 120.512 134.18 120.512C134.18 120.512 141.105 119.184 135.695 114.092C130.284 109.001 107.995 112.1 101.72 118.963C95.444 125.826 96.7427 131.361 98.6897 135.124C100.638 138.888 104.1 147.744 104.1 147.744L106.047 148.185Z" fill="#263238" stroke="#263238" stroke-width="0.496287" stroke-miterlimit="10" stroke-linecap="round" stroke-linejoin="round"/>
<path d="M109.076 149.514C109.076 149.514 104.748 144.865 102.368 147.078C99.9877 149.292 103.45 154.827 106.263 156.819C109.076 158.811 111.674 156.376 111.674 156.376" fill="white"/>
<path d="M109.076 149.514C109.076 149.514 104.748 144.865 102.368 147.078C99.9877 149.292 103.45 154.827 106.263 156.819C109.076 158.811 111.674 156.376 111.674 156.376" stroke="#263238" stroke-width="0.496287" stroke-miterlimit="10" stroke-linecap="round" stroke-linejoin="round"/>
<path d="M133.313 133.574C133.313 133.574 131.15 131.803 130.068 134.238C128.986 136.674 129.635 139.33 129.635 139.33L136.56 149.956L129.852 151.505" stroke="#263238" stroke-width="0.496287" stroke-miterlimit="10" stroke-linecap="round" stroke-linejoin="round"/>
<path d="M132.232 155.712C132.232 155.712 127.687 157.705 123.143 153.941" stroke="#263238" stroke-width="0.496287" stroke-miterlimit="10" stroke-linecap="round" stroke-linejoin="round"/>
<path d="M124.225 135.566C124.225 135.566 118.598 133.352 115.785 138.666" stroke="#263238" stroke-width="0.496287" stroke-miterlimit="10" stroke-linecap="round" stroke-linejoin="round"/>
<path d="M123.684 144.864C124.461 144.864 125.091 143.873 125.091 142.65C125.091 141.428 124.461 140.437 123.684 140.437C122.907 140.437 122.277 141.428 122.277 142.65C122.277 143.873 122.907 144.864 123.684 144.864Z" fill="#263238"/>
<path d="M135.911 139.772C135.911 140.995 135.281 141.986 134.504 141.986C133.727 141.986 133.097 140.995 133.097 139.772C133.097 138.55 133.726 137.559 134.504 137.559C135.281 137.559 135.911 138.55 135.911 139.772Z" fill="#263238"/>
<path d="M133.747 167.667L123.792 166.781L134.829 181.392L133.747 167.667Z" fill="#263238" stroke="#263238" stroke-width="0.496287" stroke-miterlimit="10"/>
<path d="M113.188 166.338L108.644 174.529L122.926 195.56L130.717 183.384L113.188 166.338Z" fill="white" stroke="#263238" stroke-width="0.496287" stroke-miterlimit="10" stroke-linecap="round" stroke-linejoin="round"/>
<path d="M97.5422 325.554H74.373V315.496C74.373 313.103 76.2698 311.163 78.609 311.163H93.3072C95.6464 311.163 97.5432 313.102 97.5432 315.496L97.5422 325.554Z" stroke="#263238" stroke-width="1.98515" stroke-miterlimit="10" stroke-linecap="round" stroke-linejoin="round"/>
<path d="M114.8 370.219H56.4813C53.3706 370.219 50.8501 367.64 50.8501 364.459V328.431C50.8501 325.249 53.3716 322.67 56.4813 322.67H114.8C117.911 322.67 120.431 325.249 120.431 328.431V364.459C120.431 367.64 117.911 370.219 114.8 370.219Z" fill="#636363" stroke="#263238" stroke-width="0.496287" stroke-miterlimit="10" stroke-linecap="round" stroke-linejoin="round"/>
<path d="M89.5167 299.323C89.5167 299.323 91.3277 302.234 93.1388 304.88C94.9498 307.526 98.3127 308.849 98.0536 310.173C97.7954 311.496 96.2426 312.29 95.208 312.025C94.1734 311.76 90.034 308.32 90.034 308.32L90.8104 315.201C90.8104 315.201 91.845 317.583 90.034 318.377C88.2229 319.171 85.6364 319.171 85.1191 318.377C84.6018 317.583 84.0845 316.26 84.0845 316.26C84.0845 316.26 79.687 316.26 78.3932 315.466C77.0995 314.671 75.5476 313.349 75.8058 309.909C76.0649 306.468 78.1341 299.852 78.1341 299.852L89.5167 299.323Z" fill="white" stroke="#263238" stroke-width="0.496287" stroke-miterlimit="10" stroke-linecap="round" stroke-linejoin="round"/>
<path d="M275.806 283.415H250.139V293.261H275.806V283.415Z" fill="white" stroke="#263238" stroke-width="0.496287" stroke-miterlimit="10" stroke-linecap="round" stroke-linejoin="round"/>
<path d="M312.645 288.009H213.299C211.05 288.009 209.227 286.144 209.227 283.843V212.723C209.227 210.423 211.049 208.557 213.299 208.557H312.646C314.895 208.557 316.719 210.422 316.719 212.723V283.843C316.718 286.144 314.895 288.009 312.645 288.009Z" fill="#263238" stroke="#263238" stroke-width="0.496287" stroke-miterlimit="10" stroke-linecap="round" stroke-linejoin="round"/>
<path d="M209.227 275.21V283.844C209.227 286.144 211.049 288.01 213.299 288.01H312.646C314.895 288.01 316.719 286.145 316.719 283.844V275.21H209.227Z" fill="white" stroke="#263238" stroke-width="0.496287" stroke-miterlimit="10" stroke-linecap="round" stroke-linejoin="round"/>
<path d="M385.823 208.944L352.843 209.224C352.843 209.224 350.663 208.944 350.118 210.618C350.118 210.618 344.394 225.396 344.121 230.694C343.848 235.992 345.212 235.155 343.03 242.127C340.85 249.097 334.581 265.549 331.037 278.934C326.275 296.923 325.033 316.014 324.732 334.581C324.683 337.561 322.942 363.197 327.476 363.197C331.238 363.197 365.937 367.902 366.356 361.059C368.022 333.783 363.207 307.132 372.468 280.604C376.064 270.302 380.189 259.421 383.241 248.643C386.304 237.821 386.826 226.665 388.822 215.636C390.184 208.108 385.823 208.944 385.823 208.944Z" fill="#263238" stroke="#263238" stroke-width="0.496287" stroke-miterlimit="10"/>
<path d="M389.053 212.285C388.728 208.391 385.823 208.944 385.823 208.944L352.843 209.224C352.843 209.224 350.663 208.944 350.118 210.618C350.118 210.618 344.394 225.396 344.121 230.694C344.016 232.742 344.154 233.873 344.238 234.893L344.939 235.992C344.939 235.992 346.029 245.751 359.112 246.309C372.195 246.866 379.555 240.733 382.28 234.877C385.005 229.022 386.096 219.541 388.277 213.964C388.495 213.404 388.765 212.843 389.053 212.285Z" fill="#BABABA" stroke="#263238" stroke-width="0.496287" stroke-miterlimit="10" stroke-linecap="round" stroke-linejoin="round"/>
<path d="M381.408 223.176C379.196 231.322 380.523 233.585 378.311 247.613C376.099 261.642 368.137 277.481 365.04 291.962C361.943 306.443 363.27 357.58 363.712 359.843C363.881 360.705 363.92 362.092 363.906 363.479C365.39 362.911 366.29 362.126 366.355 361.059C368.021 333.783 363.206 307.132 372.467 280.603C376.064 270.301 380.189 259.42 383.24 248.642C386.303 237.82 386.824 226.664 388.821 215.635C389.658 211.01 388.335 209.546 387.19 209.103L387.157 209.147C387.157 209.147 383.619 215.03 381.408 223.176Z" fill="#BABABA" stroke="#263238" stroke-width="0.496287" stroke-miterlimit="10" stroke-linecap="round" stroke-linejoin="round"/>
<path d="M317.707 429.08L317.486 428.899V397.402H321.91V377.49H305.542V397.402H309.965V429.44L270.816 442.204V445.372C270.816 447.372 272.4 448.992 274.355 448.992C276.31 448.992 277.895 447.372 277.895 445.372V444.919L310.629 441.025V445.824C310.629 447.574 312.016 448.992 313.725 448.992C315.436 448.992 316.822 447.574 316.822 445.824V440.868L350.884 444.92V445.373C350.884 447.373 352.469 448.993 354.422 448.993C356.377 448.993 357.962 447.373 357.962 445.373V442.205L317.707 429.08Z" fill="#263238" stroke="#263238" stroke-width="0.496287" stroke-miterlimit="10"/>
<path d="M364.922 381.159H266.617C264.44 381.159 262.675 379.354 262.675 377.127V362.096C262.675 359.869 264.44 358.064 266.617 358.064H364.922C367.099 358.064 368.864 359.869 368.864 362.096V377.127C368.864 379.355 367.1 381.159 364.922 381.159Z" fill="#263238" stroke="#263238" stroke-width="0.496287" stroke-miterlimit="10"/>
<path d="M219.555 447.365H215.146L212.276 315.831H223.411L219.555 447.365Z" fill="#263238" stroke="#263238" stroke-width="0.496287" stroke-miterlimit="10"/>
<path d="M437.594 447.365H433.185L430.315 315.831H441.45L437.594 447.365Z" fill="#263238" stroke="#263238" stroke-width="0.496287" stroke-miterlimit="10"/>
<path d="M189.585 295.485L193.379 452.016H197.945L201.738 322.225H459.271L462.574 452.016H469.484L470.965 295.485H189.585Z" fill="white" stroke="#263238" stroke-width="0.496287" stroke-miterlimit="10" stroke-linecap="round" stroke-linejoin="round"/>
<path d="M470.756 299.243H189.711V303.573H470.756V299.243Z" fill="#757575" stroke="#263238" stroke-width="0.496287" stroke-miterlimit="10"/>
<path d="M472.941 292.919H183.657V299.762H472.941V292.919Z" fill="white" stroke="#263238" stroke-width="0.496287" stroke-miterlimit="10" stroke-linecap="round" stroke-linejoin="round"/>
<path d="M218.077 50.0078C218.054 49.831 218.066 49.6447 218.113 49.461C218.304 48.7215 219.023 48.2712 219.722 48.4595C220.098 48.5598 220.47 48.6647 220.839 48.7742C221.532 48.9799 221.929 49.7408 221.726 50.4782C221.519 51.2161 220.789 51.6475 220.096 51.4419C219.744 51.338 219.391 51.2381 219.036 51.1468C218.507 51.0013 218.144 50.5423 218.077 50.0078ZM231.206 55.5123C231.17 55.2229 231.217 54.9202 231.366 54.6466C231.725 53.9746 232.525 53.7288 233.157 54.0918C237.326 56.5048 241.458 59.5548 245.436 63.1665C245.979 63.6625 246.035 64.535 245.554 65.1154C245.074 65.6959 244.244 65.7701 243.701 65.2742C239.861 61.7883 235.878 58.8416 231.861 56.5234C231.491 56.3075 231.259 55.9262 231.206 55.5123ZM252.494 74.0863C252.438 73.6443 252.589 73.1735 252.931 72.8528C253.478 72.3396 254.307 72.3843 254.785 72.9521C257.854 76.6013 260.955 80.7416 264.006 85.2668C264.424 85.8851 264.28 86.7484 263.685 87.1993C263.091 87.6503 262.273 87.5135 261.856 86.8953C258.857 82.4518 255.813 78.3846 252.808 74.8072C252.629 74.5938 252.527 74.3435 252.494 74.0863ZM268.809 97.7292C268.743 97.2068 268.966 96.663 269.419 96.3574C270.034 95.9442 270.846 96.131 271.228 96.7715C273.089 99.9073 274.944 103.126 276.744 106.243L278.944 110.051C279.319 110.7 279.119 111.552 278.499 111.958C277.879 112.363 277.07 112.168 276.696 111.522L274.491 107.707C272.7 104.601 270.845 101.387 268.994 98.2655C268.895 98.0968 268.832 97.914 268.809 97.7292ZM283.447 122.61C283.382 122.099 283.595 121.561 284.036 121.254C284.645 120.829 285.459 120.995 285.851 121.63C288.836 126.428 291.616 130.537 294.35 134.186C294.796 134.779 294.692 135.653 294.116 136.129C293.545 136.609 292.717 136.515 292.275 135.917C289.498 132.201 286.675 128.033 283.647 123.168C283.536 123.001 283.472 122.807 283.447 122.61ZM300.629 145.521C300.577 145.107 300.704 144.668 301.007 144.346C301.523 143.8 302.353 143.788 302.865 144.321C304.327 145.852 305.832 147.319 307.335 148.679C309.442 150.583 311.692 152.39 314.028 154.04C314.624 154.462 314.776 155.32 314.365 155.959C313.954 156.594 313.137 156.769 312.537 156.347C310.116 154.637 307.783 152.768 305.601 150.79C304.049 149.385 302.5 147.876 300.994 146.303C300.787 146.086 300.666 145.81 300.629 145.521ZM323.372 162.031C323.34 161.778 323.373 161.515 323.482 161.268C323.787 160.568 324.567 160.255 325.227 160.565C329.596 162.618 334.228 164.281 338.996 165.508C339.698 165.688 340.117 166.437 339.934 167.18C339.751 167.922 339.032 168.376 338.33 168.197C333.409 166.932 328.63 165.214 324.119 163.093C323.7 162.893 323.43 162.485 323.372 162.031ZM350.271 169.311C350.257 169.202 350.255 169.092 350.268 168.979C350.343 168.217 350.994 167.659 351.713 167.725C356.555 168.182 361.48 168.221 366.359 167.832C367.086 167.774 367.705 168.348 367.746 169.108C367.789 169.872 367.236 170.534 366.51 170.591C361.492 170.99 356.418 170.951 351.434 170.479C350.818 170.421 350.349 169.926 350.271 169.311ZM378.137 167.377C378.047 166.666 378.495 165.984 379.173 165.823C383.992 164.681 388.709 163.113 393.194 161.151C393.867 160.856 394.631 161.189 394.899 161.893C395.168 162.596 394.838 163.407 394.165 163.702C389.54 165.724 384.673 167.344 379.706 168.518C378.997 168.684 378.302 168.216 378.153 167.473C378.149 167.441 378.141 167.409 378.137 167.377ZM404.137 156.299C404.07 155.769 404.3 155.219 404.762 154.921C408.975 152.174 412.917 149.011 416.472 145.528C417.006 145.005 417.836 145.029 418.328 145.582C418.816 146.136 418.778 147.011 418.244 147.538C414.562 151.148 410.482 154.423 406.117 157.268C405.497 157.674 404.688 157.478 404.313 156.828C404.218 156.659 404.16 156.48 404.137 156.299Z" fill="black"/>
</svg>
